<?xml version="1.0" encoding="utf-8"?>
<svg xmlns="http://www.w3.org/2000/svg" xmlns:xlink="http://www.w3.org/1999/xlink" style="margin: auto; background: none; display: block; shape-rendering: auto;" width="221px" height="221px" viewBox="0 0 100 100" preserveAspectRatio="xMidYMid">
<g transform="rotate(0 50 50)">
  <rect x="49.5" y="17.5" rx="0.5" ry="0.54" width="1" height="3" fill="#e50914">
    <animate attributeName="opacity" values="1;0" keyTimes="0;1" dur="0.5681818181818182s" begin="-0.5471380471380471s" repeatCount="indefinite"></animate>
  </rect>
</g><g transform="rotate(13.333333333333334 50 50)">
  <rect x="49.5" y="17.5" rx="0.5" ry="0.54" width="1" height="3" fill="#e50914">
    <animate attributeName="opacity" values="1;0" keyTimes="0;1" dur="0.5681818181818182s" begin="-0.5260942760942761s" repeatCount="indefinite"></animate>
  </rect>
</g><g transform="rotate(26.666666666666668 50 50)">
  <rect x="49.5" y="17.5" rx="0.5" ry="0.54" width="1" height="3" fill="#e50914">
    <animate attributeName="opacity" values="1;0" keyTimes="0;1" dur="0.5681818181818182s" begin="-0.505050505050505s" repeatCount="indefinite"></animate>
  </rect>
</g><g transform="rotate(40 50 50)">
  <rect x="49.5" y="17.5" rx="0.5" ry="0.54" width="1" height="3" fill="#e50914">
    <animate attributeName="opacity" values="1;0" keyTimes="0;1" dur="0.5681818181818182s" begin="-0.484006734006734s" repeatCount="indefinite"></animate>
  </rect>
</g><g transform="rotate(53.333333333333336 50 50)">
  <rect x="49.5" y="17.5" rx="0.5" ry="0.54" width="1" height="3" fill="#e50914">
    <animate attributeName="opacity" values="1;0" keyTimes="0;1" dur="0.5681818181818182s" begin="-0.4629629629629629s" repeatCount="indefinite"></animate>
  </rect>
</g><g transform="rotate(66.66666666666667 50 50)">
  <rect x="49.5" y="17.5" rx="0.5" ry="0.54" width="1" height="3" fill="#e50914">
    <animate attributeName="opacity" values="1;0" keyTimes="0;1" dur="0.5681818181818182s" begin="-0.4419191919191919s" repeatCount="indefinite"></animate>
  </rect>
</g><g transform="rotate(80 50 50)">
  <rect x="49.5" y="17.5" rx="0.5" ry="0.54" width="1" height="3" fill="#e50914">
    <animate attributeName="opacity" values="1;0" keyTimes="0;1" dur="0.5681818181818182s" begin="-0.42087542087542085s" repeatCount="indefinite"></animate>
  </rect>
</g><g transform="rotate(93.33333333333333 50 50)">
  <rect x="49.5" y="17.5" rx="0.5" ry="0.54" width="1" height="3" fill="#e50914">
    <animate attributeName="opacity" values="1;0" keyTimes="0;1" dur="0.5681818181818182s" begin="-0.3998316498316498s" repeatCount="indefinite"></animate>
  </rect>
</g><g transform="rotate(106.66666666666667 50 50)">
  <rect x="49.5" y="17.5" rx="0.5" ry="0.54" width="1" height="3" fill="#e50914">
    <animate attributeName="opacity" values="1;0" keyTimes="0;1" dur="0.5681818181818182s" begin="-0.3787878787878788s" repeatCount="indefinite"></animate>
  </rect>
</g><g transform="rotate(120 50 50)">
  <rect x="49.5" y="17.5" rx="0.5" ry="0.54" width="1" height="3" fill="#e50914">
    <animate attributeName="opacity" values="1;0" keyTimes="0;1" dur="0.5681818181818182s" begin="-0.3577441077441077s" repeatCount="indefinite"></animate>
  </rect>
</g><g transform="rotate(133.33333333333334 50 50)">
  <rect x="49.5" y="17.5" rx="0.5" ry="0.54" width="1" height="3" fill="#e50914">
    <animate attributeName="opacity" values="1;0" keyTimes="0;1" dur="0.5681818181818182s" begin="-0.33670033670033667s" repeatCount="indefinite"></animate>
  </rect>
</g><g transform="rotate(146.66666666666666 50 50)">
  <rect x="49.5" y="17.5" rx="0.5" ry="0.54" width="1" height="3" fill="#e50914">
    <animate attributeName="opacity" values="1;0" keyTimes="0;1" dur="0.5681818181818182s" begin="-0.31565656565656564s" repeatCount="indefinite"></animate>
  </rect>
</g><g transform="rotate(160 50 50)">
  <rect x="49.5" y="17.5" rx="0.5" ry="0.54" width="1" height="3" fill="#e50914">
    <animate attributeName="opacity" values="1;0" keyTimes="0;1" dur="0.5681818181818182s" begin="-0.2946127946127946s" repeatCount="indefinite"></animate>
  </rect>
</g><g transform="rotate(173.33333333333334 50 50)">
  <rect x="49.5" y="17.5" rx="0.5" ry="0.54" width="1" height="3" fill="#e50914">
    <animate attributeName="opacity" values="1;0" keyTimes="0;1" dur="0.5681818181818182s" begin="-0.2735690235690236s" repeatCount="indefinite"></animate>
  </rect>
</g><g transform="rotate(186.66666666666666 50 50)">
  <rect x="49.5" y="17.5" rx="0.5" ry="0.54" width="1" height="3" fill="#e50914">
    <animate attributeName="opacity" values="1;0" keyTimes="0;1" dur="0.5681818181818182s" begin="-0.2525252525252525s" repeatCount="indefinite"></animate>
  </rect>
</g><g transform="rotate(200 50 50)">
  <rect x="49.5" y="17.5" rx="0.5" ry="0.54" width="1" height="3" fill="#e50914">
    <animate attributeName="opacity" values="1;0" keyTimes="0;1" dur="0.5681818181818182s" begin="-0.23148148148148145s" repeatCount="indefinite"></animate>
  </rect>
</g><g transform="rotate(213.33333333333334 50 50)">
  <rect x="49.5" y="17.5" rx="0.5" ry="0.54" width="1" height="3" fill="#e50914">
    <animate attributeName="opacity" values="1;0" keyTimes="0;1" dur="0.5681818181818182s" begin="-0.21043771043771042s" repeatCount="indefinite"></animate>
  </rect>
</g><g transform="rotate(226.66666666666666 50 50)">
  <rect x="49.5" y="17.5" rx="0.5" ry="0.54" width="1" height="3" fill="#e50914">
    <animate attributeName="opacity" values="1;0" keyTimes="0;1" dur="0.5681818181818182s" begin="-0.1893939393939394s" repeatCount="indefinite"></animate>
  </rect>
</g><g transform="rotate(240 50 50)">
  <rect x="49.5" y="17.5" rx="0.5" ry="0.54" width="1" height="3" fill="#e50914">
    <animate attributeName="opacity" values="1;0" keyTimes="0;1" dur="0.5681818181818182s" begin="-0.16835016835016833s" repeatCount="indefinite"></animate>
  </rect>
</g><g transform="rotate(253.33333333333334 50 50)">
  <rect x="49.5" y="17.5" rx="0.5" ry="0.54" width="1" height="3" fill="#e50914">
    <animate attributeName="opacity" values="1;0" keyTimes="0;1" dur="0.5681818181818182s" begin="-0.1473063973063973s" repeatCount="indefinite"></animate>
  </rect>
</g><g transform="rotate(266.6666666666667 50 50)">
  <rect x="49.5" y="17.5" rx="0.5" ry="0.54" width="1" height="3" fill="#e50914">
    <animate attributeName="opacity" values="1;0" keyTimes="0;1" dur="0.5681818181818182s" begin="-0.12626262626262624s" repeatCount="indefinite"></animate>
  </rect>
</g><g transform="rotate(280 50 50)">
  <rect x="49.5" y="17.5" rx="0.5" ry="0.54" width="1" height="3" fill="#e50914">
    <animate attributeName="opacity" values="1;0" keyTimes="0;1" dur="0.5681818181818182s" begin="-0.10521885521885521s" repeatCount="indefinite"></animate>
  </rect>
</g><g transform="rotate(293.3333333333333 50 50)">
  <rect x="49.5" y="17.5" rx="0.5" ry="0.54" width="1" height="3" fill="#e50914">
    <animate attributeName="opacity" values="1;0" keyTimes="0;1" dur="0.5681818181818182s" begin="-0.08417508417508417s" repeatCount="indefinite"></animate>
  </rect>
</g><g transform="rotate(306.6666666666667 50 50)">
  <rect x="49.5" y="17.5" rx="0.5" ry="0.54" width="1" height="3" fill="#e50914">
    <animate attributeName="opacity" values="1;0" keyTimes="0;1" dur="0.5681818181818182s" begin="-0.06313131313131312s" repeatCount="indefinite"></animate>
  </rect>
</g><g transform="rotate(320 50 50)">
  <rect x="49.5" y="17.5" rx="0.5" ry="0.54" width="1" height="3" fill="#e50914">
    <animate attributeName="opacity" values="1;0" keyTimes="0;1" dur="0.5681818181818182s" begin="-0.04208754208754208s" repeatCount="indefinite"></animate>
  </rect>
</g><g transform="rotate(333.3333333333333 50 50)">
  <rect x="49.5" y="17.5" rx="0.5" ry="0.54" width="1" height="3" fill="#e50914">
    <animate attributeName="opacity" values="1;0" keyTimes="0;1" dur="0.5681818181818182s" begin="-0.02104377104377104s" repeatCount="indefinite"></animate>
  </rect>
</g><g transform="rotate(346.6666666666667 50 50)">
  <rect x="49.5" y="17.5" rx="0.5" ry="0.54" width="1" height="3" fill="#e50914">
    <animate attributeName="opacity" values="1;0" keyTimes="0;1" dur="0.5681818181818182s" begin="0s" repeatCount="indefinite"></animate>
  </rect>
</g>
<!-- [ldio] generated by https://loading.io/ --></svg>